<?xml version="1.0" encoding="UTF-8"?> <svg xmlns="http://www.w3.org/2000/svg" width="177" height="444" viewBox="0 0 177 444" fill="none"><path d="M58.9102 14.4643C59.9715 14.4643 61.0328 14.4643 62.0941 14.4643C62.6458 14.4643 63.0889 14.7186 63.6015 14.7186C64.0835 14.7186 63.1676 14.2771 62.9112 13.9557C62.6055 13.5725 61.2775 11.78 60.7416 11.78C60.086 11.78 61.7344 12.6715 62.3336 12.9385C63.1477 13.3013 62.3743 12.2999 62.2631 11.9778C61.9293 11.0106 64.1653 12.6247 64.5877 12.7972C67.366 13.9323 64.3276 11.9131 64.2355 10.9889C64.129 9.92151 63.883 10.4014 64.8554 11.1443C66.522 12.4177 65.5886 10.9633 65.0526 9.68914C64.9581 9.46453 64.0014 7.17226 64.7427 8.16336C64.8997 8.37337 65.5034 9.24144 65.5034 8.51655C65.5034 8.49249 65.7497 8.89686 65.8134 8.98276C66.2322 9.54814 66.7542 10.0285 67.1658 10.5933C67.7666 11.4177 66.8108 7.91572 66.6586 7.51349C65.4967 4.44159 67.9179 9.93951 67.3349 7.14618C66.6604 3.91485 68.2929 8.82015 68.2929 7.99383C68.2929 7.79951 68.4209 5.67691 68.0393 5.67691C67.7876 5.67691 68.9418 8.04024 69.0395 8.21987C69.4622 8.99691 69.283 5.49816 69.2509 5.1118C69.1912 4.39403 69.0536 3.68647 69.0536 2.96441C69.0536 2.42864 69.1213 4.05585 69.3354 4.5467C69.4365 4.77845 70.3524 6.80711 70.702 6.80711C70.9611 6.80711 70.8287 4.80087 70.8287 4.5467C70.8287 3.91425 70.9079 4.73375 70.9837 4.92815C71.2411 5.58774 71.798 6.10453 72.1953 6.67997C72.9161 7.72411 72.5844 5.45273 72.5475 5.05529C72.4901 4.43639 72.0967 1.9139 72.0967 2.06024C72.0967 3.39432 72.4871 4.65245 72.8434 5.90295C73.0963 6.79073 72.6969 4.03125 72.9138 3.13394C72.9754 2.87891 73.1355 5.61723 73.2378 6.17137C73.5301 7.75432 73.5371 7.47863 73.7591 6.01597C73.9996 4.43093 74.1474 -0.211157 74.6889 1.29735C75.0291 2.24501 74.5321 4.53045 75.3933 5.14006C75.6603 5.32907 75.883 3.30347 76.0273 3.30347C76.2845 3.30347 76.1541 5.9724 76.1541 6.29852C76.1541 7.58588 77.9299 3.38673 78.1828 2.87965C79.0621 1.11615 78.9771 1.9328 78.5631 3.26109C78.1317 4.6456 78.7178 3.00171 78.8872 3.19045C79.3115 3.6632 78.7288 5.79402 78.4927 6.32678C78.2205 6.94089 78.9914 5.04898 79.4366 4.5467C80.3423 3.52494 79.9579 5.02886 79.9579 5.81818C79.9579 6.54682 81.1808 4.53101 81.5921 4.19351C82.0396 3.82636 80.9915 6.89237 80.8595 7.30158C80.7302 7.70246 80.3242 8.86725 80.3242 8.44592C80.3242 7.82721 81.238 6.94772 81.5639 6.49631C82.4557 5.26138 82.1847 6.57564 82.3951 6.41154C83.1179 5.84779 84.7644 3.94488 84.6633 4.85751C84.5705 5.69505 83.1253 6.68159 82.8037 7.54175C82.6607 7.92403 83.5246 6.96991 83.5504 6.94839C84.5429 6.11897 85.5673 5.29115 86.5934 4.50432C87.0018 4.19112 86.044 5.83523 86.044 6.07248C86.044 6.22098 87.7582 4.89506 88.0586 4.68798C89.6829 3.5681 87.3799 6.70893 87.1147 7.13205C86.8623 7.53466 86.6664 8.08774 86.3539 8.44592C86.0706 8.77058 86.8105 7.70552 87.1147 7.40047C88.0671 6.44542 87.9352 7.04895 87.3119 7.85256C86.2522 9.21885 86.9452 8.46031 87.8754 7.90907C91.4096 5.81482 87.2676 9.60438 88.1008 9.60438C88.5126 9.60438 90.3212 8.8295 90.2986 8.86974C90.1631 9.11123 88.8452 9.98765 89.8759 9.8728C90.2173 9.83476 92.4062 9.31737 92.2146 9.64676C92.0683 9.89823 90.7778 10.7855 91.3693 10.9041C92.1911 11.0689 88.8482 13.1854 90.8621 12.1756" stroke="#383837" stroke-opacity="0.8" stroke-linecap="round"></path><path d="M77.6641 14.2104C77.6641 16.0753 77.6641 17.9401 77.6641 19.805C77.6641 22.1302 78.8731 19.8821 79.4392 21.5851" stroke="#383837" stroke-opacity="0.8" stroke-linecap="round"></path><path d="M81.9727 16.7535C83.1379 16.7535 86.03 17.3392 86.03 15.7363" stroke="#383837" stroke-opacity="0.8" stroke-linecap="round"></path><path d="M74.6264 17.0068C74.0521 17.0068 73.911 17.2964 73.4853 17.6284C73.104 17.9258 72.2963 17.7697 71.8511 17.7697C71.1284 17.7697 69.9052 17.9642 69.5547 17.2611" stroke="#383837" stroke-opacity="0.8" stroke-linecap="round"></path><path d="M75.9062 25.3983C77.0777 25.3983 77.8809 26.4155 78.9493 26.4155C79.8273 26.4155 81.3199 25.984 81.7387 25.144" stroke="#383837" stroke-opacity="0.8" stroke-linecap="round"></path><path d="M63.9745 18.7866C62.4117 18.7866 60.8572 18.7693 61.9458 20.6797C62.5473 21.7353 63.7565 22.3646 64.7353 22.8554" stroke="#383837" stroke-opacity="0.8" stroke-linecap="round"></path><path d="M89.5898 16.7536C89.7322 15.6117 91.9117 17.5365 92.1257 17.9121C92.7941 19.085 92.1971 19.6966 91.1114 20.0595" stroke="#383837" stroke-opacity="0.8" stroke-linecap="round"></path><path d="M87.815 24.6367C87.5313 27.4811 83.0411 30.4855 80.4609 30.4855" stroke="#383837" stroke-opacity="0.8" stroke-linecap="round"></path><path d="M66.1719 25.4424C66.1719 26.5394 67.2426 27.6499 68.1563 28.1653C68.7736 28.5135 69.5477 28.5156 70.1493 28.8173" stroke="#383837" stroke-opacity="0.8" stroke-linecap="round"></path><path d="M64.942 30.1221C64.942 31.3388 64.9582 32.3599 65.8216 33.301C66.2519 33.77 66.8064 34.114 67.2366 34.5708C67.6415 35.0007 67.6191 35.5112 67.6191 36.0665C67.6191 36.3749 66.8361 36.4239 66.6247 36.3179C66.4398 36.2252 66.238 36.0939 66.0511 35.9898C65.8505 35.878 65.9363 36.6705 65.9363 36.7909C65.9363 37.2907 66.1001 37.9855 65.4009 38.0224C64.7922 38.0545 63.9937 37.9032 63.4505 37.6005C63.2114 37.4674 63.2781 37.531 63.4122 37.7326C63.5898 37.9998 63.8592 38.4478 63.8711 38.7724C63.9045 39.6758 63.7159 41.279 62.8003 41.6871C61.7476 42.1563 60.7637 41.4133 59.8938 40.9541C59.6995 40.8516 59.524 40.7211 59.3201 40.6303C59.0477 40.5089 59.0458 40.2212 58.9376 39.9826C58.678 39.4098 58.7464 38.4804 58.7464 37.869C58.7464 36.7736 58.7686 35.7326 58.9376 34.6475C59.159 33.227 59.1353 31.6965 59.8938 30.4289" stroke="#383837" stroke-opacity="0.8" stroke-linecap="round"></path><path d="M67.9805 34.0952H75.648" stroke="#383837" stroke-opacity="0.8" stroke-linecap="round"></path><path d="M64.7706 40.5019C64.7706 40.8755 64.5939 41.7463 64.8298 42.0504C65.0795 42.3724 65.576 42.574 65.942 42.7208C67.0824 43.1782 68.5711 42.9581 69.7758 42.9581C71.1367 42.9581 72.8104 42.1708 73.9231 41.4037C74.4985 41.0071 75.5433 40.3614 75.8459 39.7544" stroke="#383837" stroke-opacity="0.8" stroke-linecap="round"></path><path d="M77.0273 36.5518C77.0273 37.6493 77.0273 38.7469 77.0273 39.8445C77.0273 40.45 77.3523 40.2895 77.8793 40.2895C79.3458 40.2895 80.7257 39.9322 82.139 39.6487" stroke="#383837" stroke-opacity="0.8" stroke-linecap="round"></path><path d="M76.707 35.5903C77.7897 35.5903 78.8724 35.5903 79.9551 35.5903C80.3836 35.5903 80.7913 35.6329 81.1797 35.8276C81.8546 36.166 81.7766 37.3424 81.8246 37.9931C81.8743 38.6659 82.0317 39.2992 82.0317 39.9688" stroke="#383837" stroke-opacity="0.8" stroke-linecap="round"></path><path d="M80.8516 34.096C83.8741 34.096 86.9297 34.3504 89.8621 33.4967C90.5433 33.2984 91.6027 32.8484 92.1635 32.411C92.2329 32.3569 92.2463 33.5079 92.2463 33.6095C92.2463 34.8376 92.2463 36.0657 92.2463 37.2938C92.2463 38.1772 92.1398 39.0483 92.1398 39.9161C92.1398 40.5715 88.0496 39.6379 87.6435 39.5423C85.6939 39.0837 83.6317 38.9521 81.7035 39.4355" stroke="#383837" stroke-opacity="0.8" stroke-linecap="round"></path><path d="M84.0391 34.6274V36.8701" stroke="#383837" stroke-opacity="0.8" stroke-linecap="round"></path><path d="M90.9922 30.6414C92.4591 30.6414 93.9259 30.6414 95.3928 30.6414C96.2615 30.6414 97.132 30.6253 98.0006 30.6414C98.7327 30.655 99.3795 31.0077 100.083 31.1681C101.121 31.4046 101.87 32.021 102.809 32.4393C103.188 32.6082 104.191 33.2495 104.357 33.5834" stroke="#383837" stroke-opacity="0.8" stroke-linecap="round"></path><path d="M96.8618 25.0835C96.8618 21.8147 96.6635 18.8093 98.0118 15.7673C98.6783 14.2634 99.1327 12.6948 100.122 11.3543C101.67 9.25492 103.386 7.32493 105.373 5.63385C107.469 3.85039 110.212 3.15391 112.916 3.35474C114.291 3.45691 115.704 4.32631 117.072 4.32631" stroke="#383837" stroke-opacity="0.8" stroke-linecap="round"></path><path d="M100.611 24.7558C100.611 22.5063 100.339 20.2879 101.752 18.3816C103.542 15.9665 105.898 14.1665 108.416 12.5885C110.458 11.3087 112.683 10.2095 115.117 10.2095" stroke="#383837" stroke-opacity="0.8" stroke-linecap="round"></path><path d="M120.98 5.52846C125.192 5.52846 129.181 5.30019 132.651 8.0836C135.072 10.0259 136.897 13.0549 138.408 15.749C140.094 18.7547 141.087 21.9014 142.266 25.1085C143.152 27.5221 143.082 30.1847 143.941 32.5763C144.62 34.4673 145.631 36.6384 146.77 38.3077C147.483 39.3521 149.361 42.0978 149.361 43.3898" stroke="#383837" stroke-opacity="0.8" stroke-linecap="round"></path><path d="M158.737 63.2124C158.737 67.6067 164.434 70.3525 167.479 72.7271C168.026 73.1536 169.048 73.6641 168.858 74.52C168.742 75.0462 165.958 76.4307 165.381 76.6234C163.344 77.3044 160.639 76.4257 158.61 76.4257C156.249 76.4257 154.404 74.9011 152.022 74.9011C149.697 74.9011 147.741 76.2986 145.56 76.8775C143.126 77.5235 141.743 77.4912 139.352 76.4257C137.413 75.5617 135.973 75.4517 133.96 76.2281C132.732 76.7021 131.665 77.4176 130.371 77.8233C129.263 78.1706 128.149 78.3496 127.062 78.7127" stroke="#383837" stroke-opacity="0.8" stroke-linecap="round"></path><path d="M115.05 17.9497C115.05 19.4613 115.063 20.9734 115.05 22.4849C115.04 23.7228 114.633 25.3677 115.026 26.5934C115.403 27.7702 116.353 28.3734 117.567 28.3734" stroke="#383837" stroke-opacity="0.8" stroke-linecap="round"></path><path d="M118.656 22.0093C118.656 22.6495 120.178 22.7727 120.626 22.9724C121.215 23.2351 122.322 23.1978 122.924 22.9968" stroke="#383837" stroke-opacity="0.8" stroke-linecap="round"></path><path d="M108.367 20.6909C109.611 20.6909 110.878 20.7249 112.087 20.8006C113.325 20.8782 109.607 20.8006 108.367 20.8006" stroke="#383837" stroke-opacity="0.8" stroke-linecap="round"></path><path d="M109.575 30.7866C109.575 31.4886 109.522 31.565 110.123 31.8839C110.81 32.2488 111.251 32.5422 112.068 32.5422C113.102 32.5422 114.619 32.6115 114.937 31.3352" stroke="#383837" stroke-opacity="0.8" stroke-linecap="round"></path><path d="M120.373 8.64209C120.373 11.0954 119.709 13.8379 122.21 15.1617C123.372 15.7764 124.41 16.3809 125.21 17.4294C126.08 18.5712 126.785 19.6358 127.157 21.0356C127.609 22.7368 127.581 24.3955 127.581 26.1458C127.581 28.3328 127.694 30.5529 127.573 32.7362C127.455 34.8602 127.194 36.9569 127.864 38.9724" stroke="#383837" stroke-opacity="0.8" stroke-linecap="round"></path><path d="M123.912 30.751C123.329 30.751 123.462 31.1439 123.276 31.6643C123.011 32.4017 122.602 33.118 122.388 33.869C122.146 34.7194 121.61 35.45 121.933 36.3414C122.941 39.1225 126.834 40.0147 129.141 41.1288C131.816 42.4206 135.111 42.1516 137.833 43.365C138.477 43.6518 139.103 44.0495 139.812 44.2075C140.389 44.3362 141.232 44.4563 141.72 44.7823" stroke="#383837" stroke-opacity="0.8" stroke-linecap="round"></path><path d="M141.283 44.6403C142.848 44.6403 144.413 44.6403 145.978 44.6403C146.685 44.6403 147.567 44.6064 148.208 44.8922C148.57 45.0535 149.092 44.8687 149.48 44.9552C150.179 45.111 150.884 45.0655 151.6 45.0655C152.935 45.0655 154.222 45.2072 155.55 45.2072C157.329 45.2072 159.119 45.2758 160.897 45.2072C161.461 45.1854 162.115 44.927 162.625 44.6718C163.344 44.3109 163.3 44.1049 162.695 44.7111C162.445 44.9623 162.063 45.2336 161.918 45.5615C161.737 45.9699 161.964 45.9313 162.342 46.1206C162.796 46.3485 163.215 46.4146 163.504 46.908C163.828 47.4599 164.252 47.7583 164.886 47.7583C164.998 47.7583 165.61 47.8391 165.671 47.9001C165.733 47.9625 164.993 48.0921 164.957 48.1127C164.609 48.3065 161.952 49.0862 162.373 49.8843C162.576 50.2689 163.151 50.797 163.473 51.1599C163.661 51.3725 163.84 51.5282 164.038 51.7268C164.224 51.9138 164.615 52.0604 164.745 52.2228C165.026 52.576 163.548 52.4354 163.261 52.4354C162.342 52.4354 161.423 52.4354 160.504 52.4354C157.903 52.4354 155.301 52.4354 152.7 52.4354C151.603 52.4354 150.517 52.3334 149.449 52.2937C148.272 52.25 147.127 51.8685 145.947 51.8685C143.783 51.8685 141.623 51.9334 139.477 52.0102C137.713 52.0734 135.927 52.0716 134.208 51.7268C132.836 51.4515 131.427 50.7653 130.204 50.1048C129.573 49.7639 128.531 49.6926 127.825 49.5693C126.133 49.2743 124.199 49.2206 123.624 51.2386C123.256 52.5298 123.051 53.6291 123.051 54.9866" stroke="#383837" stroke-opacity="0.8" stroke-linecap="round"></path><path d="M120.246 55.9802C120.246 57.6036 121.083 58.6895 121.801 60.0904C122.132 60.7367 122.468 61.1692 122.508 61.9329C122.599 63.6753 120.963 64.8255 119.54 65.5392C117.833 66.3946 114.99 66.4255 113.541 64.9722C113.362 64.7926 112.752 63.7754 113.25 63.7754C113.685 63.7754 114.069 63.4919 114.514 63.4919C114.87 63.4919 115.226 63.4919 115.582 63.4919C116.208 63.4919 115.429 62.2555 115.268 61.9329C114.87 61.1336 116.22 61.2243 116.713 61.2243C117.184 61.2243 117.81 61.1928 118.095 61.6494C118.179 61.7851 118.671 62.134 118.692 61.7912C118.713 61.4323 118.547 61.323 118.409 61.0117C118.103 60.3216 117.048 58.7383 118.056 58.1771C118.493 57.9336 119.256 58.0964 119.744 57.9566C120.417 57.7638 120.028 56.1345 120.246 55.6968" stroke="#383837" stroke-opacity="0.8" stroke-linecap="round"></path><path d="M117.588 67.2363C117.588 68.8233 115.844 70.2928 114.747 71.1731C113.335 72.3057 111.855 73.3437 110.46 74.4883C109.358 75.3927 108.183 76.3761 106.844 76.8941C105.532 77.4016 104.255 77.9319 102.895 78.3215C101.768 78.6444 100.607 78.8988 99.4514 79.0985C97.9988 79.3497 96.5893 79.3575 95.1181 79.3575C94.222 79.3575 93.3888 79.0783 92.5066 79.0467C92.0274 79.0296 91.5747 78.6323 91.1406 78.6323" stroke="#383837" stroke-opacity="0.8" stroke-linecap="round"></path><path d="M77.8242 72.7269C78.0312 72.7009 77.9275 72.0276 77.9275 71.8463C77.9275 71.4883 78.4583 71.137 78.754 70.9887C79.4536 70.6379 80.4067 70.5513 81.1761 70.5513C81.9046 70.5513 82.406 71.2507 82.7257 71.8463C83.085 72.5153 82.8369 73.2449 83.7933 73.2449C84.1083 73.2449 84.4408 73.0856 84.6887 72.8823C84.9987 72.6279 85.1993 72.7043 85.5496 72.6002C86.1517 72.4213 87.1222 72.384 87.1222 73.2449C87.1222 73.8928 86.947 74.8315 87.1279 75.4665C87.1825 75.6579 87.8012 75.6277 87.9487 75.6277C88.306 75.6277 88.6312 75.7935 88.9818 75.8349C89.6843 75.9177 89.705 77.0158 89.705 77.5155C89.705 78.36 89.9225 79.6374 89.3434 80.3472C88.5534 81.3154 86.6376 81.1185 85.5266 81.1185C84.5013 81.1185 83.3731 80.6782 82.5995 79.9558C82.1996 79.5825 81.8465 79.2537 81.2851 79.2537C81.0436 79.2537 80.7169 79.3563 80.7169 79.0465C80.7169 78.0637 81.0981 76.8352 80.6136 75.8982C80.1394 74.9811 79.7653 74.8097 78.909 74.3327C78.3254 74.0076 78.2797 73.0801 77.8242 72.6233" stroke="#383837" stroke-opacity="0.8" stroke-linecap="round"></path><path d="M68.5234 91.996C68.5234 90.1299 69.4494 89.0712 70.7733 87.852C71.5945 87.0958 72.2876 86.2194 73.1667 85.5267C73.814 85.0167 74.428 84.5173 75.0378 83.967C75.9998 83.0988 77.1107 82.357 78.338 81.9468" stroke="#383837" stroke-opacity="0.8" stroke-linecap="round"></path><path d="M67.473 97.3164C67.473 103.866 66.7723 110.817 67.4947 117.337C67.9071 121.059 68.2559 124.547 68.2559 128.329C68.2559 132.458 62.4613 134.882 60.6223 137.75C59.6932 139.2 57.4158 142.271 60.818 142.461C63.7237 142.623 65.8881 141.068 68.4299 139.909C70.5115 138.961 73.1474 139.314 75.3893 138.623C77.6147 137.936 80.6326 139.46 82.5444 137.968C84.3755 136.54 83.5231 132.903 83.5231 130.684" stroke="#383837" stroke-opacity="0.8" stroke-linecap="round"></path><path d="M82.7364 87.5024C82.7364 92.5077 81.865 98.4534 82.7581 103.379C83.5348 107.663 84.2848 112.039 85.0634 116.334C85.582 119.194 84.3023 121.754 84.3023 124.403C84.3023 125.756 83.5193 127.184 83.5193 128.525C83.5193 130.03 83.5193 131.535 83.5193 133.04" stroke="#383837" stroke-opacity="0.8" stroke-linecap="round"></path><path d="M83.5155 88.289C83.5155 94.5497 83.2873 100.648 83.5155 106.827C83.5897 108.836 84.6899 110.473 84.6899 112.432C84.6899 114.389 85.356 116.525 85.4728 118.516C85.5816 120.371 87.0387 122.184 87.0387 124.187C87.0387 125.81 87.4771 128.436 88.1261 129.901C88.8163 131.458 88.2122 135.159 89.9964 136.181C91.8565 137.247 94.6991 136.967 96.8253 136.967C99.2135 136.967 101.976 135.867 104.437 135.418C106.145 135.107 109.444 135.244 110.831 134.131C112.803 132.55 110.273 129.681 109.352 128.527C108.183 127.061 105.454 127.387 103.959 125.888C103.095 125.022 103.741 123.668 103.285 122.66C102.933 121.885 102.697 119.959 102.697 119.105C102.697 115.85 102.597 112.66 101.827 109.487C101.248 107.098 101.451 104.604 100.936 102.225C100.464 100.048 99.9571 97.2139 99.9571 94.9843C99.9571 93.5604 99.6212 92.181 99.5656 90.7316C99.5141 89.3897 99.3766 87.1247 98.7827 85.9336" stroke="#383837" stroke-opacity="0.8" stroke-linecap="round"></path><path d="M56.0517 45.5781C55.9753 46.3438 55.4288 47.3228 54.999 47.9386C54.294 48.9486 54.3623 49.7007 54.0779 50.8414C53.7858 52.0132 53.9464 53.3426 53.9464 54.5507" stroke="#383837" stroke-opacity="0.8" stroke-linecap="round"></path><path d="M90.8004 51.9093C86.739 51.9093 83.4314 49.5342 79.4844 49.5342C77.5645 49.5342 75.7848 50.6322 73.9287 50.839C72.3857 51.0109 70.9483 51.3139 69.4696 51.7773C66.6192 52.6706 63.0425 52.0465 60.4197 53.6246C58.5589 54.7442 55.6261 55.8678 53.4313 55.8678C51.2394 55.8678 50.073 56.2907 48.1681 57.2459C47.0167 57.8232 45.9411 58.6778 45.0101 59.5623C44.0849 60.4413 42.6176 60.9727 41.5305 61.6735C40.0592 62.622 38.6038 63.5672 37.1737 64.5764C35.8492 65.5111 34.8562 66.8438 33.431 67.6846C32.4323 68.2737 31.0625 71.1152 31.0625 72.2295" stroke="#383837" stroke-opacity="0.8" stroke-linecap="round"></path><path d="M22.643 80.4131C22.643 82.2431 21.952 83.5663 21.4734 85.2806C21.2502 86.0798 21.2582 87.0797 20.6547 87.685C19.3037 89.0397 18.0912 90.5195 16.7219 91.8927C14.0499 94.5721 10.6468 95.8211 9.95273 99.7363C9.2718 103.577 8.17095 107.06 7.11642 110.761C6.684 112.279 5.82255 113.632 5.21581 114.984C4.69809 116.138 3.69531 117.636 3.69531 118.942" stroke="#383837" stroke-opacity="0.8" stroke-linecap="round"></path><path d="M3.69531 118.678C3.69531 120.749 6.5183 122.373 8.49071 122.373C11.5493 122.373 14.3795 121.954 16.4441 124.616C18.7862 127.636 21.976 126.859 25.2161 126.859C26.4903 126.859 27.2803 126.707 28.1694 127.651C28.8147 128.336 30.0797 129.85 30.9326 130.041C34.007 130.726 38.2743 132.131 41.4445 130.686C42.8142 130.061 44.1235 129.345 45.5381 128.838C46.7697 128.397 48.7066 128.637 50.0119 128.706C51.4007 128.78 52.6806 129.234 54.164 129.234C56.4976 129.234 58.3065 127.651 60.67 127.651C61.804 127.651 62.3706 127.893 63.3162 128.164C63.899 128.331 65.845 129.939 66.0648 129.498" stroke="#383837" stroke-opacity="0.8" stroke-linecap="round"></path><path d="M110.512 133.982C115.434 133.982 120.69 135.022 125.239 132.969C133.066 129.437 141.845 130.525 150.307 130.525C153.92 130.525 158.818 129.202 162.232 130.7C164.608 131.743 166.646 133.327 168.638 134.925C170.123 136.116 170.932 139.878 168.481 140.581C165.819 141.343 163.833 143.496 161.274 144.351" stroke="#383837" stroke-opacity="0.8" stroke-linecap="round"></path><path d="M163.78 143.408C167.379 143.408 169.294 147.437 170.987 150.077C172.418 152.309 174.993 155.772 173.006 158.334C168.552 164.076 161.523 163.794 155.772 167.464C154.256 168.431 152.263 168.429 150.619 169.018C148.34 169.834 146.129 170.582 143.743 171.06C139.032 172.005 134.722 173.151 129.868 173.26C127.401 173.315 124.923 173.574 122.418 173.574C119.75 173.574 117.454 174.241 114.88 174.499C110.705 174.918 106.601 176.402 102.363 176.402" stroke="#383837" stroke-opacity="0.8" stroke-linecap="round"></path><path d="M164.717 145.293C166.816 145.293 168.195 145.01 169.73 146.55C170.983 147.805 172.767 148.574 173.804 150.076C174.979 151.778 175.997 152.924 175.997 155.034C175.997 156.997 174.873 158.898 173.804 160.445C171.88 163.233 169.645 164.859 166.597 166.346C162.017 168.58 157.74 170.696 152.81 171.932C148.092 173.115 143.006 175.458 138.152 175.458C132.381 175.458 126.458 175.36 120.848 176.646C118.608 177.159 115.698 176.865 113.397 177.03C111.783 177.145 110.171 177.886 108.628 177.972C105.84 178.128 103.237 177.658 100.48 177.658" stroke="#383837" stroke-opacity="0.8" stroke-linecap="round"></path><path d="M106.127 176.717C93.051 176.717 80.1772 176.402 67.0111 176.402C64.4238 176.402 61.8879 175.46 59.2818 175.46C57.7673 175.46 56.2528 175.46 54.7382 175.46C51.8659 175.46 48.9935 175.46 46.1212 175.46C43.8085 175.46 42.3938 172.317 40.0109 172.317C37.7007 172.317 35.3158 171.689 33.1172 171.689" stroke="#383837" stroke-opacity="0.8" stroke-linecap="round"></path><path d="M33.1132 171.687C27.0576 171.687 21.745 169.487 15.879 169.487C14.1777 169.487 12.422 169.369 10.7262 169.505C9.28876 169.62 7.91414 170.116 6.47857 170.116C4.60144 170.116 3.30097 170.072 1.93502 168.702C-0.712531 166.047 2.90579 160.75 4.8422 158.734C5.6149 157.929 6.76373 157.074 7.41862 156.22C8.40774 154.931 10.1047 154.611 11.4921 153.916C13.3151 153.002 15.7091 153.148 17.7591 153.148" stroke="#383837" stroke-opacity="0.8" stroke-linecap="round"></path><path d="M62.2556 134.924C54.6308 134.924 47.006 134.924 39.3811 134.924C34.2452 134.924 29.2046 134.795 24.1837 135.569C21.041 136.054 18.2718 137.568 15.3229 138.624C14.0359 139.085 11.4943 139.243 10.6227 140.335C8.40002 143.121 16.0082 144.327 17.4467 145.049C18.5263 145.59 20.5802 146.297 20.5802 147.65C20.5802 149.249 19.9585 150.309 19.3268 151.735C18.129 154.437 15.7557 156.705 13.5299 158.49C12.9045 158.992 12.4151 158.865 13.0599 159.189C13.8201 159.57 14.3507 160.011 15.2533 160.062C16.9854 160.158 18.9565 160.56 20.2669 158.735C21.2965 157.301 22.3303 156.377 23.1567 154.72C23.9081 153.213 24.3404 151.07 24.3404 149.378" stroke="#383837" stroke-opacity="0.8" stroke-linecap="round"></path><path d="M24.3438 149.064C27.5368 149.064 31.4325 149.366 34.1968 150.95C36.0687 152.022 38.2888 152.574 40.1679 153.621C42.321 154.82 45.9145 155.205 48.3323 155.646C52.0677 156.327 55.7457 156.606 59.6129 156.606C65.4451 156.606 71.0483 155.349 76.9167 155.349C81.972 155.349 87.0127 155.314 92.027 155.035C96.718 154.773 101.39 154.721 106.128 154.721C111.227 154.721 116.098 153.778 121.168 153.778" stroke="#383837" stroke-opacity="0.8" stroke-linecap="round"></path><path d="M121.168 153.777C123.691 153.777 126.204 153.925 128.671 153.306C130.147 152.936 132.515 152.926 133.772 152.206C135.848 151.017 139.069 150.511 141.362 149.867C142.878 149.441 144.798 149.601 146.236 148.994C149.665 147.546 153.236 147.164 156.333 144.979C157.66 144.042 158.738 143.588 160.354 143.425C162.014 143.259 163.697 142.465 165.35 142.465" stroke="#383837" stroke-opacity="0.8" stroke-linecap="round"></path><path d="M165.342 139.637C160.032 139.637 154.461 139.119 149.187 139.706C145.964 140.065 143.876 142.042 140.901 142.849C138.447 143.514 137.036 145.945 134.947 147.108C133.332 148.008 131.679 148.502 129.933 149.063C124.308 150.873 117.672 152.206 111.759 152.206C110.419 152.206 108.997 152.347 107.686 152.048C106.223 151.715 104.726 151.014 103.229 150.949C99.1954 150.773 95.203 150.006 91.1479 150.006C86.2947 150.006 80.967 149.801 76.2813 151.193C75.5468 151.411 74.6841 151.039 74.0008 151.42C73.6015 151.642 73.0391 151.891 72.5907 151.891C71.1064 151.891 69.9876 150.581 68.8305 149.936C67.9498 149.445 67.8737 148.749 66.7415 148.749C63.8903 148.749 61.0353 149.445 58.316 150.25C56.3128 150.844 54.4918 150.909 52.5364 151.333C50.2089 151.837 47.7655 151.212 45.4687 151.822C44.0927 152.187 39.8325 152.52 41.2559 152.52" stroke="#383837" stroke-opacity="0.8" stroke-linecap="round"></path><path d="M116.465 140.895C127.35 140.895 138.238 140.987 149.123 140.895C155.36 140.842 161.141 138.117 167.227 137.438" stroke="#383837" stroke-opacity="0.8" stroke-linecap="round"></path><path d="M90.4531 140.58H100.167" stroke="#383837" stroke-opacity="0.8" stroke-linecap="round"></path><path d="M53.4807 141.836C45.0203 141.836 36.5599 141.836 28.0995 141.836C24.9261 141.836 21.835 141.801 18.699 141.277C17.7237 141.114 16.8651 140.893 15.8789 140.893" stroke="#383837" stroke-opacity="0.8" stroke-linecap="round"></path><path d="M19.8633 171.141C21.9416 171.141 23.9644 171.352 25.9731 171.464C27.2016 171.532 28.4596 172.8 29.5104 173.327C32.2702 174.711 34.5056 175.932 37.5496 176.695C43.1742 178.105 49.4355 177.913 55.236 177.913C61.6861 177.913 68.0824 177.591 74.5301 177.591" stroke="#383837" stroke-opacity="0.8" stroke-linecap="round"></path><path d="M171.971 162.112C171.971 164.744 170.654 166.388 169.72 168.812C168.722 171.404 167.253 173.509 166.022 175.978C163.446 181.146 159.708 185.883 155.911 190.167C154.241 192.051 152.803 194.309 151.248 196.294C149.816 198.121 147.969 199.724 146.889 201.776C145.597 204.23 143.014 206.665 141.083 208.601C139.017 210.673 137.413 213.134 135.384 215.248C131.297 219.504 128.298 224.784 124.397 229.185C122.056 231.827 120.466 235.044 117.948 237.57C116.075 239.448 114.7 241.968 112.785 243.697C108.962 247.147 105.595 251.402 102.476 255.485C99.4921 259.392 95.9698 262.955 93.1867 266.986C91.7791 269.025 89.5498 270.995 87.3984 272.074" stroke="#383837" stroke-opacity="0.8" stroke-linecap="round"></path><path d="M7.3125 173.078C7.3125 175.707 7.40988 177.434 8.92035 179.706C10.293 181.771 11.8779 183.666 13.3509 185.654C16.0039 189.235 19.6092 192.111 22.3548 195.651C23.3843 196.978 25.0811 198.881 25.5705 200.488C25.8858 201.522 26.2323 202.176 26.8568 203.067C27.5416 204.045 27.6135 205.306 28.286 206.292C32.528 212.509 37.5202 218.205 42.3636 223.956C43.8385 225.708 45.8246 227.067 47.2586 228.865C49.0787 231.146 50.9342 233.406 52.8682 235.601C56.778 240.038 60.9557 244.299 64.9449 248.607C68.2437 252.17 71.0137 256.168 74.5206 259.5C75.2488 260.191 78.0457 261.38 79.0226 261.434C79.8741 261.482 80.7421 261.434 81.5951 261.434" stroke="#383837" stroke-opacity="0.8" stroke-linecap="round"></path><path d="M70.9961 255.95C70.9961 257.978 73.0334 260.495 74.2118 262.005C75.6683 263.872 77.0485 266.739 78.8746 268.204C79.2621 268.515 79.8913 269.379 80.2502 269.816C80.8236 270.515 81.7121 270.914 82.251 271.59C82.5941 272.02 84.1805 273.892 84.1805 273.686" stroke="#383837" stroke-opacity="0.8" stroke-linecap="round"></path><path d="M69.3831 230.475C69.3831 234.053 69.3831 237.63 69.3831 241.207C69.3831 241.929 70.1019 239.955 70.455 239.325C72.6797 235.359 75.2092 231.581 77.6009 227.717C78.3647 226.483 80.1001 222.559 79.8519 223.99C79.7047 224.839 78.9631 225.94 78.6014 226.642C77.1218 229.512 75.6314 232.378 74.2423 235.295C72.6994 238.534 71.4668 241.88 70.0798 245.184C69.0973 247.524 71.5756 242.604 71.7055 242.335C73.0952 239.463 74.5114 236.207 76.5648 233.736C77.6338 232.45 75.0542 236.724 74.3674 238.251C73.2168 240.808 72.1885 243.461 71.509 246.187C70.9941 248.252 70.8751 248.867 72.3129 246.527C74.9338 242.263 77.4167 237.916 80.1735 233.736C80.9736 232.523 81.8012 231.323 82.6389 230.135C82.7751 229.942 83.26 229.424 83.1212 229.616C81.4668 231.897 79.9625 234.291 78.4585 236.674C77.7895 237.734 74.0708 243.901 77.3508 239.505C81.1434 234.421 84.6851 229.186 88.2127 223.919C91.1465 219.538 88.6694 225.218 87.8912 226.803C85.5243 231.624 82.8439 236.276 80.5487 241.135C80.3717 241.51 77.9393 246.475 78.9944 245.273C82.1348 241.697 85.0566 237.933 87.9626 234.166C90.5279 230.841 93.0393 226.949 96.252 224.187C96.7122 223.792 95.6027 225.215 95.2516 225.71C93.4385 228.268 91.6779 230.86 89.9099 233.449C86.4767 238.477 82.8145 243.424 79.9591 248.82C79.7786 249.162 79.0167 250.473 80.1199 249.465C82.6505 247.154 84.9049 244.465 87.2123 241.941C89.7731 239.14 92.3239 236.333 94.93 233.575C96.4072 232.011 97.9147 229.879 99.6463 228.576C100.933 227.609 97.7654 231.194 96.7522 232.446C93.5304 236.427 90.2519 240.361 87.0515 244.36C84.4082 247.662 81.7997 250.994 79.2088 254.338C78.0514 255.832 76.2618 257.593 75.5286 259.39C75.1273 260.374 77.1977 258.071 77.9404 257.312C80.724 254.469 83.4052 251.525 86.069 248.57C90.1426 244.051 93.8577 239.165 98.0028 234.721C101.03 231.476 93.122 242.141 90.5709 245.775C88.0232 249.404 85.6355 253.45 82.8354 256.882C80.9138 259.237 86.1737 251.794 88.0162 249.376C89.4626 247.478 90.9059 245.582 92.3217 243.661C93.0082 242.73 93.7903 241.32 94.8228 240.687C96.0526 239.933 93.149 243.041 92.286 244.198C91.5639 245.167 89.0803 247.586 90.2136 247.172C91.7734 246.603 93.1105 244.699 94.269 243.589C94.7336 243.144 95.869 241.906 95.8947 242.55C95.9765 244.6 92.9035 247.747 91.8215 249.179C89.0758 252.813 86.1778 256.36 83.1748 259.784C82.9772 260.01 82.3694 260.672 82.5674 260.447C83.9567 258.868 85.3696 257.31 86.7836 255.754C88.972 253.344 91.1503 250.466 93.8224 248.552C94.543 248.035 93.0001 250.13 92.5003 250.863C90.5235 253.763 88.5777 256.706 86.4977 259.534C86.4366 259.617 84.264 262.267 85.4258 261.468C87.7557 259.867 89.8391 257.578 91.8036 255.556C92.758 254.574 93.5752 254.023 92.5539 255.807C90.699 259.047 88.3045 261.974 86.2476 265.087C85.6398 266.007 85.181 266.859 86.2476 265.481C87.3355 264.076 88.5313 262.753 89.9099 261.63C90.8539 260.861 89.35 263.411 89.2668 263.564C88.7303 264.551 88.1067 265.484 87.5339 266.449C87.1932 267.022 85.9781 268.307 86.6406 268.24C87.4786 268.156 89.0608 265.372 89.499 264.729C90.1371 263.793 91.2549 262.302 89.9814 264.138C89.8022 264.396 88.7606 265.485 89.4633 264.46C92.747 259.671 96.3099 255.079 99.7893 250.433C102.21 247.2 104.776 244.033 107.042 240.687C107.214 240.434 108.012 239.281 106.971 240.597C104.65 243.532 102.221 246.377 99.825 249.25C98.6806 250.623 97.5444 251.998 96.3592 253.335C96.2755 253.429 95.2158 254.411 95.2158 254.697C95.2158 255.357 96.0847 253.703 96.5021 253.192C99.0381 250.086 101.697 247.084 104.363 244.091C107.795 240.237 111.374 236.525 114.832 232.697C114.997 232.514 116.208 231.206 114.742 232.733C112.27 235.307 109.842 237.924 107.418 240.544C105.043 243.109 102.413 245.598 100.254 248.355C97.2944 252.132 106.371 240.961 109.365 237.212C111.135 234.995 112.915 232.791 114.76 230.637C115.806 229.416 117.191 228.162 117.976 226.731C119.103 224.675 114.71 230.103 113.259 231.945C111.851 233.732 109.886 235.447 108.757 237.426C107.233 240.102 112.707 232.705 114.689 230.35C116.279 228.459 117.855 226.56 119.405 224.635C119.73 224.232 120.814 223.406 120.298 223.363C119.483 223.295 117.282 225.115 116.904 225.388C113.017 228.183 109.329 231.264 105.578 234.238C102.825 236.42 99.8473 238.513 97.3239 240.974C95.4397 242.811 101.129 237.337 102.987 235.474C104.47 233.987 105.953 232.5 107.435 231.013C108.006 230.441 109.251 229.54 109.633 228.774C110.192 227.651 107.676 230.341 106.757 231.192C103.289 234.405 99.9117 237.734 96.5736 241.081C94.8726 242.787 93.2274 244.545 91.5535 246.276C91.1698 246.673 90.2597 247.884 89.6777 248.175C88.7401 248.646 90.97 246.52 91.6071 245.685C93.8904 242.693 96.1737 239.706 98.5208 236.764C98.7037 236.534 103.104 230.847 102.29 230.816C101.163 230.772 99.4597 232.221 98.6816 232.769C96.0759 234.604 93.647 236.677 91.1426 238.645C90.916 238.823 86.3768 242.301 86.7121 241.009C87.6673 237.329 90.9604 233.77 92.947 230.583C95.9621 225.745 90.2675 231.824 89.3918 232.715C86.5975 235.559 83.8924 238.49 81.2097 241.439C80.5925 242.118 78.4728 245.336 77.2436 245.596C76.2266 245.81 78.2452 237.058 74.8497 237.301C73.6355 237.388 73.5635 238.347 73.5635 239.343C73.5635 240.079 74.2433 242.006 73.6706 241.547C72.8506 240.889 72.1806 240.018 71.3839 239.325C71.1384 239.112 69.2384 237.137 70.0441 238.268C71.438 240.225 73.0994 241.993 74.6532 243.822C76.5914 246.104 71.5051 242.084 71.241 241.869C68.3876 239.548 65.7566 236.968 62.9159 234.632C60.7645 232.862 62.4949 234.159 63.5769 235.115C67.0483 238.184 77.4618 247.364 73.7778 244.557C69.6402 241.403 57.7058 231.34 61.6296 234.757C65.5419 238.164 69.0883 241.962 72.956 245.417C74.8101 247.072 70.3907 243.414 70.3656 243.392C67.1206 240.512 63.9911 237.525 60.6471 234.757C59.1511 233.519 56.8917 231.752 59.7002 234.381C62.1445 236.669 64.5988 238.952 66.9891 241.296C67.8082 242.099 70.0445 243.941 67.5072 242.192C63.1282 239.173 59.0539 235.723 54.9124 232.392C54.1698 231.795 50.2353 228.636 50.3747 228.684C53.0862 229.623 55.6341 231.273 57.9137 232.984C59.4515 234.138 63.7202 238.018 62.3621 236.656C61.2579 235.549 60.0835 234.521 58.8248 233.593C56.1355 231.61 61.5053 236.761 61.7011 236.961C65.7225 241.052 69.4446 245.41 73.3491 249.609C75.5918 252.021 68.5402 245.092 66.3817 242.604C64.0909 239.963 62.0015 237.198 59.8253 234.471C57.8417 231.984 64.4223 238.865 66.6676 241.117C69.8225 244.281 73.0522 247.466 75.9216 250.899C77.0625 252.263 77.8373 253.285 76.1896 251.149C74.494 248.951 72.7174 246.823 71.0624 244.592C68.9085 241.69 72.8934 245.425 73.4563 245.99C76.1278 248.669 79.504 251.576 81.6027 254.732C83.2284 257.178 77.5838 250.446 75.4214 248.462C75.3128 248.362 72.9625 246.131 73.492 247.531C74.4518 250.068 76.44 252.326 77.994 254.517C78.497 255.227 80.3089 257.108 78.2798 255.915C75.4745 254.265 72.9918 252.067 70.1155 250.54C65.8542 248.278 76.8249 257.503 80.4593 260.68C81.9752 262.005 79.6142 259.446 79.3517 259.175C78.6078 258.407 76.3475 256.301 77.3508 256.667C78.9934 257.266 80.5798 259.148 81.8707 260.268C82.1385 260.5 85.3132 263.15 85.3186 262.937C85.3974 259.858 82.8069 256.459 83.5679 253.407C83.9072 252.045 87.6972 255.166 88.3557 255.628" stroke="#383837" stroke-opacity="0.8" stroke-linecap="round"></path><path d="M60.0547 228.863C61.341 228.863 62.6272 228.863 63.9135 228.863C64.873 228.863 63.3488 228.488 62.9488 228.218C62.5713 227.963 60.8428 226.038 60.4477 226.104C59.8826 226.198 61.2589 226.917 61.6983 227.286C64.0846 229.288 66.3902 231.395 68.6835 233.503C70.8272 235.473 72.8805 237.532 74.9362 239.594C76.0445 240.705 72.3939 237.741 71.0238 236.978C70.1174 236.473 68.8241 235.495 70.2377 236.799C71.3425 237.818 72.4977 238.761 73.5606 239.827" stroke="#383837" stroke-opacity="0.8" stroke-linecap="round"></path><path d="M55.8836 226.283C55.9786 227.045 59.6946 226.606 60.0462 226.606C68.1271 226.606 76.208 226.606 84.289 226.606C88.6923 226.606 93.1078 226.42 97.4733 227.072C98.5124 227.227 99.5353 227.251 100.582 227.251C103.088 227.251 105.55 226.727 108.049 226.534C111.458 226.271 114.852 226.283 118.268 226.283C119.632 226.283 120.717 225.366 122.056 225.316C122.184 225.311 123.155 225.212 122.556 224.993C118.409 223.482 112.659 223.897 108.442 223.704C90.0175 222.858 71.5707 223.059 53.1324 223.059C52.8013 223.059 50.2552 223.112 50.542 223.238C51.2574 223.552 52.1622 223.622 52.918 223.704C56.5023 224.091 60.117 224.183 63.7085 224.492C76.7672 225.614 89.865 227.766 103.011 226.677C106.186 226.415 109.332 225.66 112.48 225.173C115.703 224.673 118.39 223.862 121.091 222.091C121.621 221.744 123.033 221.684 123.342 221.375C123.544 221.172 121.824 220.501 121.734 220.461C118.668 219.094 115.303 218.247 112.015 217.648C102.276 215.876 91.8081 214.938 81.9308 215.964C77.0646 216.47 72.3582 217.254 67.4601 217.254C64.5378 217.254 61.6792 217.469 58.7778 217.577C57.2247 217.634 55.3562 218.203 53.9542 218.867C52.9576 219.338 50.9305 219.58 52.4893 220.622C56.336 223.194 60.7973 224.146 65.2985 224.958C73.9197 226.512 82.7017 226.585 91.435 226.606C100.463 226.627 109.491 226.606 118.518 226.606C121.925 226.606 125.331 226.606 128.737 226.606C130.582 226.606 130.394 225.515 128.88 224.671C125.754 222.93 122.41 222.813 118.983 222.091C118.242 221.935 114.199 222.107 116.303 221.052C121.773 218.31 127.797 216.076 132.596 212.166C134.545 210.578 128.034 214.282 125.825 215.481C122.469 217.302 119.037 219.026 115.91 221.231C114.068 222.53 117.681 220.67 117.893 220.551C120.554 219.042 123.231 217.338 125.45 215.212C129.056 211.756 116.682 220.972 114.552 225.495C114.458 225.695 115.018 225.616 115.213 225.513C116.979 224.581 118.561 223.289 120.09 222.02C121.608 220.76 123.082 219.447 124.628 218.222C125.084 217.861 126.071 216.982 125.343 217.971C124.861 218.625 123.951 220.032 124.11 220.909C124.266 221.769 128.184 219.928 128.487 219.762C129.891 218.996 131.247 217.818 132.185 216.502C133.458 214.715 128.54 218.947 126.843 220.336C125.128 221.74 123.573 223.186 122.02 224.743C121.277 225.488 123.117 222.943 123.735 222.091" stroke="#383837" stroke-opacity="0.8" stroke-linecap="round"></path><path d="M108.283 236.925C107.963 239.499 105.312 240.676 103.478 242.407C101.598 244.181 99.9512 246.144 98.3147 248.14C97.4421 249.204 96.1753 250.456 95.7422 251.759" stroke="#383837" stroke-opacity="0.8" stroke-linecap="round"></path><path d="M104.437 239.828C100.899 240.171 95.1737 242.929 93.5039 246.278" stroke="#383837" stroke-opacity="0.8" stroke-linecap="round"></path><path d="M113.109 235.635C112.798 238.756 109.009 240.825 107.178 243.052C104.701 246.062 101.845 248.669 99.2813 251.597C97.3037 253.856 95.4567 256.201 93.5645 258.53C91.7101 260.812 91.1083 263.492 90.2773 266.269" stroke="#383837" stroke-opacity="0.8" stroke-linecap="round"></path><path d="M81.6607 272.974C81.6607 283.641 80.4155 294.127 80.4155 304.813C80.4155 309.125 79.793 313.486 79.793 317.924C79.793 322.502 80.4155 327.039 80.4155 331.658C80.4155 345.133 83.8674 358.389 84.1509 371.752C84.322 379.814 84.1509 387.898 84.1509 395.962C84.1509 398.916 83.5283 401.729 83.5283 404.702C83.5283 407.001 83.9216 409.532 82.9058 411.569" stroke="#383837" stroke-opacity="0.8" stroke-linecap="round"></path><path d="M86.6388 270.476C86.6388 284.21 86.6388 297.945 86.6388 311.68C86.6388 324.712 84.0037 337.386 86.9501 350.387C88.5206 357.316 89.1177 364.481 90.5125 371.474C91.7551 377.704 92.2419 383.321 92.2419 389.683C92.2419 396.163 91.7526 401.952 90.5125 408.308C89.4895 413.551 88.5065 418.705 88.5065 424.054" stroke="#383837" stroke-opacity="0.8" stroke-linecap="round"></path><path d="M91.5727 408.581C98.8599 408.581 106.147 408.581 113.434 408.581C117.486 408.581 121.438 408.777 125.048 410.788C130.187 413.651 134.199 417.948 139.926 420.075C142.636 421.081 145.022 424.856 144.86 427.763C144.661 431.358 140.652 432.816 137.877 433.929C131.824 436.357 125.072 436.098 118.748 437.507C106.098 440.326 93.4146 441.465 80.4901 441.465C72.5555 441.465 65.3219 441.202 57.4898 439.714C51.0101 438.483 44.0286 439.752 37.7536 437.887C31.5189 436.035 25.8789 433.077 20.6742 429.133C17.3818 426.639 11.8405 425.228 9.06023 422.13C6.09531 418.827 15.3809 414.242 17.1065 413.376C23.524 410.159 29.8442 408.601 36.7668 407.058C49.3854 404.246 62.2078 402.415 75.1765 402.415" stroke="#383837" stroke-opacity="0.8" stroke-linecap="round"></path><path d="M29.4107 416.117C22.5213 416.117 17.988 421.523 23.1103 427.231C28.2608 432.97 35.918 434.237 43.0743 436.137C52.6692 438.684 60.7848 441.465 71.0845 441.465C83.6094 441.465 96.1343 441.465 108.659 441.465" stroke="#383837" stroke-opacity="0.8" stroke-linecap="round"></path><path d="M49.2148 432.56C59.8406 432.56 70.5529 432.165 81.1723 432.56C85.112 432.706 90.7684 435.049 94.3045 436.67C98.5597 438.621 102.555 439.463 105.918 442.836" stroke="#383837" stroke-opacity="0.8" stroke-linecap="round"></path><path d="M131.194 414.062C136.526 414.062 142.421 416.157 145.844 420.571C150.087 426.041 152.006 432.941 143.491 435.452C132.89 438.579 121.504 438.415 110.699 441.123C97.5376 444.423 85.1358 442.836 71.7578 442.836" stroke="#383837" stroke-opacity="0.8" stroke-linecap="round"></path></svg> 