<?xml version="1.0" encoding="UTF-8"?> <svg xmlns="http://www.w3.org/2000/svg" width="347" height="89" viewBox="0 0 347 89" fill="none"><path d="M1 57.0921C6.36501 57.0921 12.1254 55.1026 17.0067 53.3027C21.585 51.6145 26.4217 50.8793 31.0049 49.3026C37.1889 47.1754 43.7253 46.3812 50.0244 44.6184C54.3069 43.42 58.7473 41.9639 63.1618 41.1623C67.7869 40.3225 72.2571 39.0921 76.9961 39.0921C79.9371 39.0921 83.4531 39.5655 86.2189 38.7763" stroke="black" stroke-linecap="round"></path><path d="M86.2168 38.7764C90.8119 38.7764 97.7997 37.966 99.4036 33.8306C100.145 31.9197 101.397 29.2568 103.28 27.8558C103.884 27.4063 107.799 25.9068 108.209 26.2293" stroke="black" stroke-linecap="round"></path><path d="M94.4629 10.1579C94.5511 10.8905 95.3263 11.6436 95.8349 12.2132C96.6879 13.1685 96.9201 14.4423 97.7977 15.3336C98.6323 16.1811 99.2901 17.5523 99.8708 18.5455C100.449 19.5341 100.96 20.6201 101.493 21.616C101.879 22.3372 102.81 22.6662 103.476 23.1886C104.968 24.3594 107.258 25.599 109.385 25.7349C110.519 25.8074 111.6 26.1842 112.77 26.1842C114.029 26.1842 115.246 25.8847 116.455 25.8847" stroke="black" stroke-linecap="round"></path><path d="M120.58 23.8948C123.304 23.8948 124.605 23.0532 126.333 21.4378C128.123 19.7653 129.637 18.0042 130.748 15.9695C131.952 13.7637 133.391 11.8936 133.948 9.46717C134.251 8.15285 134.325 6.9211 134.325 5.57899" stroke="black" stroke-linecap="round"></path><path d="M134.328 5.57899C133.342 5.76092 132.968 7.0072 132.062 7.31387C131.327 7.56239 130.383 8.02668 129.707 8.3777C129.15 8.66652 128.359 8.76068 127.746 8.98327C125.862 9.66785 123.924 10.2892 121.933 10.7345C119.373 11.3068 116.785 11.8824 114.129 12.052C111.865 12.1967 109.625 12.3548 107.35 12.3548C105.602 12.3548 103.461 12.6408 101.773 12.2075C100.173 11.7966 98.7521 11.3993 97.3395 10.6527C96.8842 10.4121 96.0808 9.95308 95.8418 9.55611" stroke="black" stroke-linecap="round"></path><path d="M95.8418 10.1579C95.8418 8.04961 99.0938 6.03818 101.202 5.29931C103.358 4.54351 105.492 3.78796 107.685 3.09085C110.717 2.12699 113.803 1.9137 116.967 1.47132C119.011 1.18545 121.163 1.12164 123.233 1.03781C124.481 0.987305 125.789 0.958779 127.017 1.14415C128.557 1.37659 130.711 1.89161 131.884 2.82911C133.379 4.02415 134.328 5.03452 134.328 6.77161" stroke="black" stroke-linecap="round"></path><path d="M115.082 26.1842C115.082 27.0565 115.949 27.7128 116.457 28.4737" stroke="black" stroke-linecap="round"></path><path d="M120.58 25.0395C120.58 25.3963 120.58 25.9963 120.58 26.1842" stroke="black" stroke-linecap="round"></path><path d="M116.459 36.4869C116.459 39.4525 116.682 42.1135 117.746 44.972C117.922 45.4428 118.023 46.7113 118.619 46.997C118.913 47.1381 119.123 47.6728 119.208 47.9343" stroke="black" stroke-linecap="round"></path><path d="M118.807 48.2328C116.62 48.2328 115.356 48.485 113.84 49.5783C112.589 50.4808 110.961 51.5401 110.961 52.9055C110.961 53.8458 113.994 53.6452 114.773 53.6294C116.874 53.5867 119.033 52.7537 121.017 52.2839C123.614 51.6692 125.925 50.9791 128.266 49.9512C129.403 49.4521 132.273 48.5898 132.858 47.6405C133.473 46.6419 130.934 46.0233 129.938 45.8343C128.623 45.5846 126.514 45.5288 125.285 45.9952C124.541 46.2778 122.822 47.0214 122.822 47.7063" stroke="black" stroke-linecap="round"></path><path d="M123.202 47.9343C123.202 45.2804 123.202 42.6265 123.202 39.9726C123.202 37.9502 123.941 34.8336 121.963 33.0527" stroke="black" stroke-linecap="round"></path><path d="M90.3418 42.2105C92.3817 42.2105 94.2811 41.7798 96.0851 40.9771C98.7612 39.7863 101.326 38.7151 103.707 37.1398C105.529 35.9341 107.622 34.8549 109.755 34.0522C111.014 33.5786 112.708 32.7277 113.708 31.9079" stroke="black" stroke-linecap="round"></path><path d="M113.628 31.7892C115.117 31.6665 116.346 30.4477 117.465 29.7253C118.334 29.1647 119.473 28.4469 120.502 28.1012C121.225 27.8583 121.812 27.5596 122.595 27.4076C122.856 27.357 124.185 27.2359 124.339 27.4583C126.108 30.0107 120.949 32.3755 119.353 33.7686C117.684 35.2257 115.164 36.7122 112.931 37.5074C112.16 37.7818 111.473 38.4133 110.674 38.607C109.659 38.8532 108.71 39.3081 107.822 39.7744C106.247 40.6006 104.619 41.3357 103.379 42.515C102.281 43.56 101.14 44.6744 99.9629 45.6448" stroke="black" stroke-linecap="round"></path><path d="M126.265 21.6446C127.6 21.6446 128.842 21.34 130.156 21.1858C131.273 21.0547 132.516 20.9497 133.585 20.6795C134.441 20.4632 135.974 20.1622 135.974 21.1462C135.974 22.0331 133.934 22.7316 133.19 23.0685C131.493 23.8374 129.754 24.4746 127.97 25.0778C127.051 25.3884 126.132 25.9502 125.216 26.2011C124.876 26.2939 124.953 26.3529 125.264 26.3435C126.226 26.3142 127.26 25.8895 128.172 25.6631C130.795 25.0125 133.243 24.4924 135.974 24.4924C137.041 24.4924 137.198 25.5385 137.004 26.2564C136.878 26.7227 135.572 27.1339 135.097 27.269C133.759 27.6494 132.329 27.8498 130.965 28.1945C128.908 28.7145 126.923 29.6184 124.705 29.6184" stroke="black" stroke-linecap="round"></path><path d="M125.212 30.2106C128.153 30.2106 130.667 28.8999 133.55 28.6052C134.674 28.4903 137.123 28.2547 137.94 28.9638C138.649 29.5801 138.594 31.1726 137.93 31.7753C136.389 33.1753 134.28 34.0172 132.218 34.6847C130.57 35.2182 128.972 35.8725 127.313 36.3717C126.706 36.554 125.455 36.8117 125.455 36.8117C125.455 36.8117 127.112 36.482 127.932 36.2902C128.621 36.1289 132.022 35.5299 132.293 36.5917C132.422 37.0973 132.304 37.7678 131.862 38.132C130.829 38.982 129.185 39.8561 127.875 40.3323C126.968 40.6623 125.662 41.0658 124.705 41.0658" stroke="black" stroke-linecap="round"></path><path d="M116.459 43.3553C113.597 43.3553 111.044 43.9196 108.303 44.5836C106.597 44.9967 105.232 45.9341 103.719 46.6579C100.682 48.1101 98.1655 50.2173 95.0858 51.6199C92.7226 52.6962 90.5355 54.0058 88.2789 55.2153C87.424 55.6736 85.8585 55.9474 84.8457 55.9474" stroke="black" stroke-linecap="round"></path><path d="M82.0962 41.0658C82.0962 43.016 82.0863 44.9666 82.0962 46.9167C82.1048 48.6248 82.4197 50.1167 82.6231 51.7739C82.702 52.4162 82.93 53.0688 83.1033 53.6738C83.1981 54.0048 83.4663 54.4936 83.4663 54.8026" stroke="black" stroke-linecap="round"></path><path d="M84.8481 57.0921C82.742 57.0921 81.379 58.1196 80.7246 59.3816" stroke="black" stroke-linecap="round"></path><path d="M75.2207 39.9211C75.2207 42.3019 76.6281 44.4639 77.2825 46.7683C78.0607 49.5093 78.7778 52.251 79.4315 55.0091C79.8101 56.6067 79.8581 58.2507 80.1733 59.8505C80.2918 60.4522 80.3673 61.1522 80.7187 61.6711" stroke="black" stroke-linecap="round"></path><path d="M1 88C3.18009 87.3772 5.13625 85.5945 7.02161 84.4802C8.35842 83.6901 9.67905 83.358 11.276 83.0919C13.7865 82.6736 15.9308 82.1299 18.2467 81.1848C20.5331 80.2517 22.6851 78.878 24.8083 77.665C29.1704 75.1727 34.0784 73.9717 38.8314 72.1819C44.0425 70.2197 49.2031 68.254 54.54 66.5446C57.391 65.6315 60.8797 65.2878 63.4415 63.8242C66.0197 62.3511 70.3577 61.7487 73.3902 61.7487C75.2014 61.7487 77.8152 61.3788 79.3464 62.2536" stroke="black" stroke-linecap="round"></path><path d="M77.5354 50.2237C74.3864 50.3701 71.401 51.8812 68.5333 52.8073C65.0409 53.9351 61.4738 54.8747 57.8917 55.8043C55.9858 56.2989 54.2988 56.9979 52.5408 57.736C51.2083 58.2955 49.7794 58.7175 48.4773 59.31C46.8155 60.0662 45.1135 60.7856 43.3576 61.3849C42.0474 61.832 42.0919 63.4242 42.4524 64.4216C42.5387 64.6602 42.4981 65.1053 42.8648 65.1053C44.1142 65.1053 45.2967 64.7291 46.4455 64.366C48.7656 63.6325 51.0258 62.8499 53.3756 62.1719C55.7206 61.4952 58.139 60.9317 60.4364 60.1606C64.7032 58.7286 69.1789 57.5253 73.5322 56.2653C74.7791 55.9045 76.039 55.7275 77.2135 55.2001C77.8556 54.9118 78.6256 54.6303 79.3458 54.5164" stroke="black" stroke-linecap="round"></path><path d="M49.1646 61.3849C49.4477 61.3849 50.1572 61.6645 50.3773 61.2259C50.6582 60.6662 50.2956 60.5263 50.0901 60.5263C49.8826 60.5263 48.6214 60.9867 49.3083 61.6711" stroke="black" stroke-linecap="round"></path><path d="M54.6055 58.1488C55.5556 58.1488 56.2652 58.2349 56.9831 57.7085C57.7342 57.1577 57.2418 57.0921 56.4307 57.0921C54.8822 57.0921 54.1862 59.3816 55.2539 59.3816" stroke="black" stroke-linecap="round"></path><path d="M64.2266 55.745C64.3683 56.3241 65.4989 55.5167 65.5859 55.1166C65.7424 54.3968 64.6366 55.0464 64.6366 55.745" stroke="black" stroke-linecap="round"></path><path d="M72.6398 53.4902C72.7285 54.147 73.7791 52.6674 73.8329 52.6065C74.0114 52.4045 72.6574 52.5237 72.4746 53.0313" stroke="black" stroke-linecap="round"></path><path d="M109.588 17.0263V18.1711" stroke="black" stroke-linecap="round"></path><path d="M117.838 15.8815V18.171" stroke="black" stroke-linecap="round"></path><path d="M124.705 14.7368V17.0263" stroke="black" stroke-linecap="round"></path><path d="M346.001 37.199C341.375 37.199 336.81 37.1383 332.202 36.8845C326.875 36.5911 321.745 35.6122 316.453 35.2015C309.397 34.6538 302.6 33.2039 295.506 33.2039C294.328 33.2039 292.127 32.6691 292.495 33.6108C293.265 35.5846 293.751 38.0502 293.751 40.1212C293.751 42.1271 293.977 44.2281 293.448 46.1878C292.85 48.3987 291.657 50.3412 291.021 52.5132" stroke="black" stroke-linecap="round"></path><path d="M289.645 52.5334C294.656 52.5334 299.508 51.9345 304.449 51.832C310.38 51.709 316.763 50.7442 322.652 52.0268C325.293 52.6019 327.889 52.8698 330.524 53.5074C332.553 53.9986 334.204 55.1594 336.182 55.6894C339.531 56.5872 342.513 57.0921 345.999 57.0921" stroke="black" stroke-linecap="round"></path><path d="M289.646 51.3685C283.943 51.3685 278.395 50.5626 272.703 50.333C271.025 50.2653 269.329 50.3233 267.648 50.3233C266.392 50.3233 266.688 49.5701 266.525 48.6781C265.975 45.6665 266.41 42.8419 267.215 39.881C267.555 38.6313 268.538 35.8195 270.269 35.3421" stroke="black" stroke-linecap="round"></path><path d="M270.404 36.3355C272.684 36.3355 275.315 36.7525 277.569 36.2019C280.291 35.5369 283.147 35.3339 285.914 34.9992C287.644 34.7899 289.277 34.1973 291.022 34.1973" stroke="black" stroke-linecap="round"></path><path d="M270.363 35.1598C270.363 33.8612 270.661 32.6991 269.593 31.7239C268.914 31.1032 268.441 30.7184 267.477 30.7673C266.299 30.8271 265.381 33.9633 265.168 34.7108C264.463 37.177 263.714 39.7875 263.436 42.3245C262.938 46.8728 261.346 51.9743 262.667 56.4977C263.126 58.071 264.381 56.0845 264.976 55.5411C265.967 54.6354 266.45 53.3969 266.985 52.2419C267.186 51.8083 267.397 51.0091 267.862 50.7972" stroke="black" stroke-linecap="round"></path><path d="M257.342 49.3284C257.342 50.7144 257.335 51.9798 255.688 52.8589C254.973 53.2403 253.238 54.0913 252.417 53.3885C251.07 52.235 251.157 50.3387 251.157 48.8871C251.157 46.0137 251.157 43.1402 251.157 40.2668C251.157 38.094 251.838 35.8572 252.888 33.8334C253.401 32.8454 254.248 31.0298 255.866 30.8031C258.374 30.4515 259.403 32.4928 259.403 34.1472" stroke="black" stroke-linecap="round"></path><path d="M267.655 36.1179C266.492 36.1179 265.177 36.301 264.134 36.301C263.15 36.301 262.069 36.8546 261.086 36.9928C260.174 37.1211 259.278 37.2698 258.371 37.3895C255.58 37.7579 252.523 37.8561 250.035 36.5757C248.223 35.6427 246.267 34.8985 244.51 33.88C243.555 33.3265 242.477 32.9753 241.522 32.3745C240.619 31.8063 239.626 31.2467 238.629 30.8079C237.311 30.2284 233.293 28.9778 233.293 27.329" stroke="black" stroke-linecap="round"></path><path d="M267.653 49.079C263.743 49.079 260.021 49.0599 256.175 48.3183C253.2 47.7446 250.044 47.9836 247.035 47.9836" stroke="black" stroke-linecap="round"></path><path d="M244.074 46.788C241.493 46.788 239.109 46.8824 236.832 45.5985C235.607 44.9082 234.509 43.9898 233.211 43.4042C232.254 42.9726 231.361 42.4993 230.577 41.8456C229.811 41.2072 223.902 37.4485 225.239 35.9906C225.904 35.266 227.81 35.3447 228.708 35.3447C230.297 35.3447 231.847 35.9786 233.281 36.5444C235.888 37.5729 238.482 38.7014 241.111 39.6718C242.156 40.0572 243.223 40.5726 244.286 40.8817" stroke="black" stroke-linecap="round"></path><path d="M228.251 34.1974C228.251 32.8038 227.173 31.3559 228.31 30.1468C228.83 29.5944 230.609 29.0808 231.432 28.777C232.597 28.347 232.612 28.0014 233.287 27.329" stroke="black" stroke-linecap="round"></path><path d="M230.545 29.6184C231.243 29.5574 232.128 28.3377 232.528 27.9559C233.581 26.9513 234.603 25.9291 235.665 24.9369C236.876 23.805 237.656 22.1144 238.244 20.7245C239.079 18.7538 238.711 16.5349 238.711 14.4723C238.711 13.0191 238.705 11.5238 238.011 10.1579" stroke="black" stroke-linecap="round"></path><path d="M237.412 10.1579C232.077 14.7721 223.836 17.144 216.078 17.7977C213.831 17.987 211.569 18.279 209.299 18.1303C208.259 18.0621 207.331 17.5313 206.444 17.1511C205.351 16.6821 204.93 15.7765 204.424 14.9801" stroke="black" stroke-linecap="round"></path><path d="M204.424 14.7368C204.424 12.3061 207.844 11.0781 209.782 9.62079C211.426 8.38383 213.576 7.7448 215.56 6.94737C217.726 6.07693 220.331 5.13695 222.715 4.79324C226.081 4.308 229.982 4.09855 233.046 5.60104C234.293 6.21232 235.597 7.09892 236.455 8.06289C237.061 8.74412 236.905 9.6106 237.412 10.2362" stroke="black" stroke-linecap="round"></path><path d="M204.446 15.8815C204.446 17.1228 204.372 18.3818 204.494 19.6195C204.657 21.2841 205.709 22.754 206.704 24.1751C207.872 25.8422 209.395 27.463 211.268 28.643C214.23 30.5091 217.352 32.0792 220.918 33.0526" stroke="black" stroke-linecap="round"></path><path d="M221.03 33.0527C221.03 35.1316 220.708 37.4001 221.164 39.4412C221.561 41.2184 222.321 42.9409 222.992 44.6548C223.385 45.6562 223.613 46.6867 224.04 47.6838C224.198 48.0512 224.626 48.907 225.043 49.079" stroke="black" stroke-linecap="round"></path><path d="M224.972 49.8908C223.762 49.8908 221.947 49.6229 220.821 49.9673C218.937 50.5443 217.834 52.037 216.529 53.1643C215.106 54.3944 214.772 57.3177 217.256 57.8545C221.862 58.8497 226.621 57.823 230.484 55.6913C232.28 54.7003 234.277 53.9686 236.042 52.9538C237.554 52.0842 238.759 50.8848 240.053 49.8142C241.028 49.0072 242.465 47.8886 242.914 46.7895" stroke="black" stroke-linecap="round"></path><path d="M205.188 23.9246C204.627 23.9246 203.755 23.733 203.459 24.3201C203.174 24.8872 202.86 25.9745 203.202 26.5727C203.957 27.891 207.05 28.4737 208.551 28.4737" stroke="black" stroke-linecap="round"></path><path d="M202.843 28.4972C200.567 28.4972 198.292 28.4972 196.016 28.4972C194.85 28.4972 193.569 28.3256 192.579 28.9098C191.674 29.4445 192.136 31.0105 192.568 31.6333C193.031 32.3022 194.302 32.5435 195.166 32.697C198.558 33.2999 202.585 33.0203 206 32.7061C208.138 32.5094 210.444 32.3161 212.513 31.835C213.538 31.5964 214.357 31.3031 215.425 31.3031" stroke="black" stroke-linecap="round"></path><path d="M213.22 34.3063C210.431 34.3063 206.89 33.7131 204.574 35.2946C203.243 36.2035 201.608 37.025 201.676 38.701C201.706 39.4555 202.849 39.8141 203.552 39.9415C205.366 40.2699 207.128 39.7284 208.731 39.0374C210.302 38.3603 212.053 37.5409 213.743 37.145C214.368 36.9986 215.871 36.9291 216.38 36.5352C217.664 35.5406 213.459 38.1132 212.128 39.0584C210.841 39.972 210.242 41.2699 209.253 42.4017C208.269 43.5292 208.482 44.823 208.517 46.1865C208.531 46.7198 208.779 47.5221 209.372 47.7846C210.972 48.4926 212.885 46.5034 213.862 45.6609C215.564 44.1922 217.212 42.6586 218.779 41.077C219.406 40.444 220.062 39.4156 220.917 39.0374" stroke="black" stroke-linecap="round"></path><path d="M295.188 48.9979C295.188 48.7322 294.88 47.7908 295.941 47.9529C297.155 48.1384 298.143 48.7738 299.27 49.079" stroke="black" stroke-linecap="round"></path><path d="M296.64 40.6519C296.333 40.6034 296.637 39.8595 297.092 39.9252C297.934 40.0466 298.807 40.6324 299.265 41.0658" stroke="black" stroke-linecap="round"></path><path d="M304.859 45.6448C304.422 45.4121 305.625 43.2548 306.168 43.359C306.741 43.4689 307.103 44.022 307.443 44.3349C307.92 44.7751 308.396 45.2155 308.889 45.6448" stroke="black" stroke-linecap="round"></path><path d="M315.764 41.6274C315.791 41.3185 316.249 39.9211 316.729 39.9211C316.866 39.9211 317.333 40.7489 317.401 40.839C317.756 41.3115 318.114 41.7696 318.513 42.2105" stroke="black" stroke-linecap="round"></path><path d="M324.006 49.7138C324.122 49.3282 325.304 47.6819 325.88 47.9673C327.305 48.6733 328.386 50.3112 329.504 51.3684" stroke="black" stroke-linecap="round"></path><path d="M335.002 43.6912C335.002 43.2986 335.44 41.7531 335.833 42.3433C336.19 42.8781 337.099 43.2106 337.658 43.5489C338.16 43.8531 338.62 44.2027 339.125 44.5" stroke="black" stroke-linecap="round"></path><path d="M339.127 53.0966C339.216 52.7563 340.382 51.1684 340.821 51.3894C341.152 51.5566 341.372 52.0181 341.663 52.2547C342.215 52.7039 342.737 53.1685 343.25 53.6579" stroke="black" stroke-linecap="round"></path><path d="M314.385 48.3543C314.385 47.1579 316.686 48.8765 317.134 49.079" stroke="black" stroke-linecap="round"></path><path d="M326.756 41.7363C326.782 41.4702 327.174 40.8515 327.507 41.1414C327.856 41.4458 328.054 42.0561 328.27 42.4528C328.652 43.1527 329.084 43.8236 329.505 44.5" stroke="black" stroke-linecap="round"></path><path d="M306.135 40.1249C306.135 39.0563 306.192 38.7334 307.169 38.7808C308.316 38.8365 309.603 40.0693 310.258 41.0658" stroke="black" stroke-linecap="round"></path><path d="M215.424 21.6053V26.1842" stroke="black" stroke-linecap="round"></path><path d="M223.664 23.8947V26.1842" stroke="black" stroke-linecap="round"></path><path d="M231.914 19.3158V21.6053" stroke="black" stroke-linecap="round"></path><path d="M230.545 45.6447C230.545 45.1117 230.545 43.9277 230.545 43.2767C230.545 42.9134 230.545 42.5856 230.545 42.2105" stroke="black" stroke-linecap="round"></path></svg> 